
<svg xmlns="http://www.w3.org/2000/svg" version="1.1" xmlns:xlink="http://www.w3.org/1999/xlink" preserveAspectRatio="none" x="0px" y="0px" width="1920px" height="1080px" viewBox="0 0 1920 1080">
<defs>
<radialGradient id="Gradient_1" gradientUnits="userSpaceOnUse" cx="0" cy="0" r="970.0000000000001" fx="0" fy="0" gradientTransform="matrix( 0.9999999999999999, 0, 0, 0.9999999999999999, 961.65,126.95) " spreadMethod="pad">
<stop  offset="0%" stop-color="#0000FF"/>

<stop  offset="100%" stop-color="#000000"/>
</radialGradient>

<image id="___4_png" x="0" y="0" width="529" height="535" xlink:href="./images/___4_png.png"/>

<filter id="Filter_1" x="-20%" y="-20%" width="140%" height="140%" color-interpolation-filters="sRGB">
<feColorMatrix in="SourceGraphic" type="matrix" values="0.5 0 0 0 0.4196078431372549 0 0.5 0 0 0 0 0 0.5 0 0.4196078431372549 0 0 0 1 0" result="result1"/>
</filter>
</defs>

<g id="___1"/>

<g id="___1">
<g transform="matrix( 1, 0, 0, 1, 953.55,390) ">
<g id="___1">
<g transform="matrix( 1, 0, 0, 1, 0,0) ">
<g>
<path stroke="#00FFFF" stroke-width="1" stroke-linejoin="round" stroke-linecap="round" fill="none" d="
M -957.55 -394
L 965.75 -394 965.75 -140.1 -957.55 -140.1 -957.55 -394 Z"/>
</g>
</g>

<g transform="matrix( 1, 0, 0, 1, -957.55,-394) ">
<g id="___1">
<g transform="matrix( 1, 0, 0, 1, 0,0) ">
<g filter="url(#Filter_1)">
<g>
<path fill="url(#Gradient_1)" stroke="none" d="
M 1923.3 253.9
L 1923.3 0 0 0 0 253.9 1923.3 253.9 Z"/>
</g>
</g>
</g>
</g>
</g>

<g transform="matrix( 1, 0, 0, 1, -190.95,-318.7) ">
<clipPath id="Mask_Mask_1">
<rect x="-2" y="-2" width="342.2" height="107.35" fill="#FFFFFF" stroke="none"/>
</clipPath>

<text clip-path="url(#Mask_Mask_1)" writing-mode="lr"><tspan x="0" y="76" baseline-shift="0%" font-family="造字工房劲黑（非商用）常规体" font-size="76" fill="#FFFFFF" xml:space="preserve">44</tspan><tspan baseline-shift="0%" font-family="造字工房劲黑（非商用）常规体" font-size="76" fill="#FFFFFF" xml:space="preserve">度天空</tspan></text>
</g>

<g transform="matrix( 1, 0, 0, 1, -597.65,187.75) ">
<g id="___1">
<g transform="matrix( 2.84320068359375, 0, 0, 2.84320068359375, -1101.5,-98.9) ">
<g id="___1">
<g transform="matrix( 1, 0, 0, 1, 2,2) ">
<clipPath id="Mask_Mask_2">
<rect x="-2" y="-2" width="1195.25" height="107.35" fill="#FFFFFF" stroke="none"/>
</clipPath>

<text clip-path="url(#Mask_Mask_2)" writing-mode="lr"><tspan x="0" y="76" baseline-shift="0%" font-family="造字工房劲黑（非商用）常规体" font-size="76" fill="#000000" fill-opacity="0.18823529411764706" xml:space="preserve">WELCOME TO MY WORLD</tspan></text>
</g>
</g>
</g>
</g>
</g>

<g transform="matrix( 1, 0, 0, 1, -101.7,-58.2) ">
<g id="___1">
<g transform="matrix( 1, 0, 0, 1, 0,0) ">
<g id="___1">
<g transform="matrix( 0.9747161865234375, 0, 0, 0.9747161865234375, 0,0) ">
<g id="___1">
<g transform="matrix( 1, 0, 0, 1, 0,0) ">
<g id="___1">
<g transform="matrix( 0.3259429931640625, 0, 0, 0.3259429931640625, 0,0) ">
<use xlink:href="#___4_png"/>
</g>
</g>
</g>
</g>
</g>
</g>
</g>
</g>
</g>
</g>

<g id="Actions"/>
</g>
</g>

<g id="Actions"/>
</svg>
